<svg width="11" height="9" viewBox="0 0 11 9" fill="none" xmlns="http://www.w3.org/2000/svg">
<path d="M10.1119 1.66384L9.30702 0.85892C9.18995 0.741882 9.05085 0.68335 8.88983 0.68335C8.72902 0.68335 8.58982 0.741882 8.47286 0.85892L3.73888 5.59288L1.8147 3.66857C1.69761 3.55145 1.55855 3.493 1.39764 3.493C1.2367 3.493 1.0977 3.55145 0.980587 3.66857L0.17577 4.47338C0.0587054 4.59045 0.00012207 4.7295 0.00012207 4.89052C0.00012207 5.05145 0.0587054 5.19045 0.17577 5.30757L3.32192 8.45373C3.43901 8.57087 3.57807 8.6293 3.73898 8.6293C3.89989 8.6293 4.03892 8.57089 4.15603 8.45373L10.1119 2.49792C10.2288 2.38088 10.2875 2.24181 10.2875 2.08087C10.2875 1.91993 10.229 1.78088 10.1119 1.66384Z" fill="#7700D1"/>
</svg>
