<svg width="24" height="24" viewBox="0 0 24 24" fill="none" xmlns="http://www.w3.org/2000/svg">
<path d="M19.8709 13.5257V11.8569C19.8709 8.31129 17.514 5.3061 14.2849 4.32455V3.22412C14.2849 1.96409 13.2598 0.938965 11.9998 0.938965C10.7397 0.938965 9.7146 1.96409 9.7146 3.22412V4.32455C6.48542 5.3061 4.12866 8.31123 4.12866 11.8569V13.5257C4.12866 16.6402 2.9415 19.5935 0.785883 21.8414C0.574633 22.0617 0.51527 22.3868 0.635012 22.6675C0.754754 22.9482 1.0305 23.1304 1.33569 23.1304H22.6638C22.969 23.1304 23.2447 22.9482 23.3645 22.6675C23.4842 22.3868 23.4248 22.0617 23.2136 21.8414C21.058 19.5935 19.8709 16.6402 19.8709 13.5257ZM12.7615 4.02281C12.5108 3.99864 12.2567 3.98584 11.9998 3.98584C11.7428 3.98584 11.4887 3.99864 11.238 4.02281V3.22412C11.238 2.80411 11.5797 2.4624 11.9998 2.4624C12.4198 2.4624 12.7615 2.80411 12.7615 3.22412V4.02281Z" fill="white"/>
</svg>
